<svg width="60" height="60" viewBox="0 0 60 60" fill="none" xmlns="http://www.w3.org/2000/svg">
<path fill-rule="evenodd" clip-rule="evenodd" d="M49.7243 26.3408L51.7248 38.5822C53.0892 39.5799 53.9578 41.1948 53.9575 42.972V46.3679C53.9575 49.3616 51.522 51.7971 48.5283 51.7971H47.7148L38.3921 51.7968H21.6063L12.2837 51.797H11.4702C8.47653 51.797 6.04102 49.3615 6.04102 46.3678V43.039C6.04102 41.3217 6.84487 39.7642 8.1244 38.7617L11.3797 18.7463C11.8578 15.8065 13.3707 13.1248 15.6394 11.1951C17.9082 9.26535 20.798 8.20264 23.7765 8.20264L36.0864 8.20264C39.0661 8.20369 41.9486 9.26314 44.2198 11.192C46.4896 13.1225 47.9999 15.7964 48.4815 18.7369L49.7239 26.3385L49.7243 26.3408ZM49.1866 39.7613C40.2311 37.9685 30.8282 37.5032 21.238 38.3777C20.8556 38.4288 20.3085 38.5002 19.6605 38.5847C16.9304 38.9411 12.4096 39.5311 10.8704 39.8166C9.31941 40.1044 8.19342 41.4597 8.19342 43.0391V46.3679C8.19342 48.1748 9.66337 49.6447 11.4702 49.6447H48.5287C50.3356 49.6447 51.8055 48.1748 51.8055 46.3679V42.972C51.8055 41.4154 50.7041 40.0651 49.1866 39.7613ZM47.6003 26.6879L49.385 37.608C40.3091 35.8145 30.7929 35.3495 21.0936 36.2295C21.0628 36.231 21.0318 36.2338 21.0006 36.238C20.971 36.2407 20.9415 36.2446 20.9122 36.2498C20.5331 36.3003 20.0082 36.3688 19.3917 36.4494C16.6368 36.8093 12.0527 37.4082 10.4777 37.7003L13.504 19.0919C14.3275 14.0293 18.6476 10.355 23.7765 10.355H36.0864C41.2114 10.355 45.531 14.026 46.3575 19.084L47.6003 26.6879Z" fill="#0E694C"/>
</svg>
