<svg width="60" height="60" viewBox="0 0 60 60" fill="none" xmlns="http://www.w3.org/2000/svg">
<path fill-rule="evenodd" clip-rule="evenodd" d="M51.2536 10.4197L8.84407 10.4197L3.26884 46.7841C3.16241 47.4854 3.36651 48.1961 3.82882 48.734C4.29112 49.2719 4.9633 49.5803 5.6726 49.5803H6.97653C8.05832 49.5803 8.99395 48.8843 9.30519 47.8484L17.4581 20.7106L20.4514 18.8561H39.5474L42.5407 20.7106L45.4738 30.4735L50.6935 47.8486C51.0046 48.8844 51.9404 49.5805 53.0222 49.5805H54.3261C55.0354 49.5805 55.7076 49.2721 56.1699 48.7342C56.6322 48.1962 56.8365 47.4855 56.7299 46.7843L51.2536 10.4197ZM42.9793 13.0452L47.9883 29.7182L53.1666 46.9546H54.1001L48.955 13.0452H42.9793ZM5.89858 46.9546H6.83211L17.0194 13.0452H11.0438L5.89858 46.9546ZM40.9029 16.6069L41.4008 16.9153L40.2377 13.045H19.7608L18.5981 16.9152L19.0956 16.6071C19.494 16.3604 19.9514 16.2302 20.4193 16.2302H39.5796C40.0472 16.2301 40.5055 16.3606 40.9029 16.6069Z" fill="#0E694C"/>
</svg>
